<mxfile host="app.diagrams.net" agent="Mozilla/5.0 (Windows NT 10.0; Win64; x64) AppleWebKit/537.36 (KHTML, like Gecko) Chrome/134.0.0.0 Safari/537.36" version="26.1.3">
  <diagram name="Page-1" id="ff44883e-f642-bcb2-894b-16b3d25a3f0b">
    <mxGraphModel dx="1693" dy="799" grid="1" gridSize="10" guides="1" tooltips="1" connect="1" arrows="1" fold="1" page="1" pageScale="1.5" pageWidth="1169" pageHeight="826" background="none" math="0" shadow="0">
      <root>
        <mxCell id="0" style=";html=1;" />
        <mxCell id="1" style=";html=1;" parent="0" />
        <mxCell id="f0bcc99304e6f5a-9" style="edgeStyle=none;curved=1;html=1;startSize=10;endArrow=classic;endFill=1;endSize=10;strokeColor=#000000;strokeWidth=2;fontSize=12;" parent="1" source="f0bcc99304e6f5a-1" target="f0bcc99304e6f5a-2" edge="1">
          <mxGeometry relative="1" as="geometry" />
        </mxCell>
        <mxCell id="f0bcc99304e6f5a-18" value="Z1/4" style="text;html=1;resizable=0;points=[];align=center;verticalAlign=middle;labelBackgroundColor=none;fontSize=20;" parent="f0bcc99304e6f5a-9" vertex="1" connectable="0">
          <mxGeometry x="0.2545" y="-5" relative="1" as="geometry">
            <mxPoint x="-8" y="-25" as="offset" />
          </mxGeometry>
        </mxCell>
        <mxCell id="f0bcc99304e6f5a-1" value="1" style="ellipse;whiteSpace=wrap;html=1;rounded=0;shadow=1;strokeColor=#666666;strokeWidth=4;fontSize=30;align=center;fillColor=#f5f5f5;" parent="1" vertex="1">
          <mxGeometry x="10" y="560" width="80" height="80" as="geometry" />
        </mxCell>
        <mxCell id="f0bcc99304e6f5a-10" style="edgeStyle=none;curved=1;html=1;startSize=10;endFill=1;endSize=10;strokeWidth=2;fontSize=12;" parent="1" source="f0bcc99304e6f5a-2" target="f0bcc99304e6f5a-6" edge="1">
          <mxGeometry relative="1" as="geometry" />
        </mxCell>
        <mxCell id="f0bcc99304e6f5a-20" value="Z2/6" style="text;html=1;resizable=0;points=[];align=center;verticalAlign=middle;labelBackgroundColor=#ffffff;fontSize=20;" parent="f0bcc99304e6f5a-10" vertex="1" connectable="0">
          <mxGeometry x="0.1545" relative="1" as="geometry">
            <mxPoint x="3" y="-20" as="offset" />
          </mxGeometry>
        </mxCell>
        <mxCell id="f0bcc99304e6f5a-2" value="2" style="ellipse;whiteSpace=wrap;html=1;rounded=0;shadow=1;strokeColor=#666666;strokeWidth=1;fontSize=30;align=center;fillColor=#f5f5f5;" parent="1" vertex="1">
          <mxGeometry x="190" y="560" width="80" height="80" as="geometry" />
        </mxCell>
        <mxCell id="f0bcc99304e6f5a-4" value="5" style="ellipse;whiteSpace=wrap;html=1;rounded=0;shadow=1;strokeColor=#666666;strokeWidth=1;fontSize=30;align=center;fillColor=#f5f5f5;" parent="1" vertex="1">
          <mxGeometry x="495" y="360" width="80" height="80" as="geometry" />
        </mxCell>
        <mxCell id="f0bcc99304e6f5a-6" value="3" style="ellipse;whiteSpace=wrap;html=1;rounded=0;shadow=1;strokeColor=#666666;strokeWidth=1;fontSize=30;align=center;fillColor=#f5f5f5;" parent="1" vertex="1">
          <mxGeometry x="370" y="560" width="80" height="80" as="geometry" />
        </mxCell>
        <mxCell id="OoFEEfyxgxCQ3jexst7W-2" value="7" style="ellipse;whiteSpace=wrap;html=1;rounded=0;shadow=1;strokeColor=#666666;strokeWidth=1;fontSize=30;align=center;fillColor=#f5f5f5;" parent="1" vertex="1">
          <mxGeometry x="560" y="500" width="80" height="80" as="geometry" />
        </mxCell>
        <mxCell id="OoFEEfyxgxCQ3jexst7W-3" style="edgeStyle=none;curved=1;html=1;startSize=10;endFill=1;endSize=10;strokeWidth=2;fontSize=12;entryX=0;entryY=0.5;entryDx=0;entryDy=0;exitX=0.962;exitY=0.373;exitDx=0;exitDy=0;exitPerimeter=0;" parent="1" source="f0bcc99304e6f5a-6" target="OoFEEfyxgxCQ3jexst7W-2" edge="1">
          <mxGeometry relative="1" as="geometry">
            <mxPoint x="420" y="912" as="sourcePoint" />
            <mxPoint x="582" y="939.29" as="targetPoint" />
          </mxGeometry>
        </mxCell>
        <mxCell id="OoFEEfyxgxCQ3jexst7W-4" value="Z4/2" style="text;html=1;resizable=0;points=[];align=center;verticalAlign=middle;labelBackgroundColor=#ffffff;fontSize=20;" parent="OoFEEfyxgxCQ3jexst7W-3" vertex="1" connectable="0">
          <mxGeometry x="-0.3488" y="-1" relative="1" as="geometry">
            <mxPoint x="16" y="-11" as="offset" />
          </mxGeometry>
        </mxCell>
        <mxCell id="OoFEEfyxgxCQ3jexst7W-5" value="8" style="ellipse;whiteSpace=wrap;html=1;rounded=0;shadow=1;strokeColor=#666666;strokeWidth=1;fontSize=30;align=center;fillColor=#f5f5f5;" parent="1" vertex="1">
          <mxGeometry x="560" y="630" width="80" height="80" as="geometry" />
        </mxCell>
        <mxCell id="OoFEEfyxgxCQ3jexst7W-6" style="edgeStyle=none;curved=1;html=1;startSize=10;endFill=1;endSize=10;strokeWidth=2;fontSize=12;entryX=0;entryY=0.375;entryDx=0;entryDy=0;exitX=0.935;exitY=0.79;exitDx=0;exitDy=0;entryPerimeter=0;exitPerimeter=0;" parent="1" source="f0bcc99304e6f5a-6" target="OoFEEfyxgxCQ3jexst7W-5" edge="1">
          <mxGeometry relative="1" as="geometry">
            <mxPoint x="438" y="800" as="sourcePoint" />
            <mxPoint x="582" y="1111.29" as="targetPoint" />
          </mxGeometry>
        </mxCell>
        <mxCell id="OoFEEfyxgxCQ3jexst7W-7" value="Z5/3" style="text;html=1;resizable=0;points=[];align=center;verticalAlign=middle;labelBackgroundColor=#ffffff;fontSize=20;" parent="OoFEEfyxgxCQ3jexst7W-6" vertex="1" connectable="0">
          <mxGeometry x="-0.3488" y="-1" relative="1" as="geometry">
            <mxPoint x="28" y="7" as="offset" />
          </mxGeometry>
        </mxCell>
        <mxCell id="OoFEEfyxgxCQ3jexst7W-8" value="9" style="ellipse;whiteSpace=wrap;html=1;rounded=0;shadow=1;strokeColor=#666666;strokeWidth=1;fontSize=30;align=center;fillColor=#f5f5f5;" parent="1" vertex="1">
          <mxGeometry x="560" y="740" width="80" height="80" as="geometry" />
        </mxCell>
        <mxCell id="OoFEEfyxgxCQ3jexst7W-9" style="edgeStyle=none;curved=1;html=1;startSize=10;endFill=1;endSize=10;strokeWidth=2;fontSize=12;entryX=0;entryY=0;entryDx=0;entryDy=0;exitX=0.598;exitY=1.008;exitDx=0;exitDy=0;exitPerimeter=0;" parent="1" source="f0bcc99304e6f5a-6" target="OoFEEfyxgxCQ3jexst7W-8" edge="1">
          <mxGeometry relative="1" as="geometry">
            <mxPoint x="425" y="780" as="sourcePoint" />
            <mxPoint x="582" y="1251.29" as="targetPoint" />
          </mxGeometry>
        </mxCell>
        <mxCell id="OoFEEfyxgxCQ3jexst7W-10" value="Z6/3" style="text;html=1;resizable=0;points=[];align=center;verticalAlign=middle;labelBackgroundColor=#ffffff;fontSize=20;" parent="OoFEEfyxgxCQ3jexst7W-9" vertex="1" connectable="0">
          <mxGeometry x="-0.3488" y="-1" relative="1" as="geometry">
            <mxPoint x="8" y="13" as="offset" />
          </mxGeometry>
        </mxCell>
        <mxCell id="OoFEEfyxgxCQ3jexst7W-11" value="12" style="ellipse;whiteSpace=wrap;html=1;rounded=0;shadow=1;strokeColor=#666666;strokeWidth=1;fontSize=30;align=center;fillColor=#f5f5f5;" parent="1" vertex="1">
          <mxGeometry x="730" y="580" width="80" height="80" as="geometry" />
        </mxCell>
        <mxCell id="OoFEEfyxgxCQ3jexst7W-15" value="" style="endArrow=none;dashed=1;html=1;rounded=0;exitX=0.923;exitY=0.28;exitDx=0;exitDy=0;exitPerimeter=0;entryX=0;entryY=1;entryDx=0;entryDy=0;" parent="1" source="OoFEEfyxgxCQ3jexst7W-8" target="OoFEEfyxgxCQ3jexst7W-11" edge="1">
          <mxGeometry width="50" height="50" relative="1" as="geometry">
            <mxPoint x="670" y="760" as="sourcePoint" />
            <mxPoint x="720" y="710" as="targetPoint" />
          </mxGeometry>
        </mxCell>
        <mxCell id="OoFEEfyxgxCQ3jexst7W-18" value="" style="endArrow=none;dashed=1;html=1;rounded=0;exitX=0.981;exitY=0.399;exitDx=0;exitDy=0;exitPerimeter=0;entryX=0.024;entryY=0.608;entryDx=0;entryDy=0;entryPerimeter=0;" parent="1" source="OoFEEfyxgxCQ3jexst7W-5" target="OoFEEfyxgxCQ3jexst7W-11" edge="1">
          <mxGeometry width="50" height="50" relative="1" as="geometry">
            <mxPoint x="610" y="722.5" as="sourcePoint" />
            <mxPoint x="730" y="617.5" as="targetPoint" />
          </mxGeometry>
        </mxCell>
        <mxCell id="OoFEEfyxgxCQ3jexst7W-19" value="" style="endArrow=none;dashed=1;html=1;rounded=0;exitX=0.979;exitY=0.682;exitDx=0;exitDy=0;exitPerimeter=0;entryX=0;entryY=0;entryDx=0;entryDy=0;" parent="1" source="OoFEEfyxgxCQ3jexst7W-2" target="OoFEEfyxgxCQ3jexst7W-11" edge="1">
          <mxGeometry width="50" height="50" relative="1" as="geometry">
            <mxPoint x="648" y="582" as="sourcePoint" />
            <mxPoint x="738" y="550" as="targetPoint" />
          </mxGeometry>
        </mxCell>
        <mxCell id="OoFEEfyxgxCQ3jexst7W-20" value="" style="endArrow=none;dashed=1;html=1;rounded=0;exitX=1;exitY=1;exitDx=0;exitDy=0;entryX=0.5;entryY=0;entryDx=0;entryDy=0;" parent="1" source="OoFEEfyxgxCQ3jexst7W-52" target="OoFEEfyxgxCQ3jexst7W-11" edge="1">
          <mxGeometry width="50" height="50" relative="1" as="geometry">
            <mxPoint x="658" y="552" as="sourcePoint" />
            <mxPoint x="748" y="520" as="targetPoint" />
          </mxGeometry>
        </mxCell>
        <mxCell id="OoFEEfyxgxCQ3jexst7W-21" value="13" style="ellipse;whiteSpace=wrap;html=1;rounded=0;shadow=1;strokeColor=#666666;strokeWidth=1;fontSize=30;align=center;fillColor=#f5f5f5;" parent="1" vertex="1">
          <mxGeometry x="930" y="580" width="80" height="80" as="geometry" />
        </mxCell>
        <mxCell id="OoFEEfyxgxCQ3jexst7W-22" style="edgeStyle=none;curved=1;html=1;startSize=10;endFill=1;endSize=10;strokeWidth=2;fontSize=12;entryX=0;entryY=0.5;entryDx=0;entryDy=0;exitX=1;exitY=0.5;exitDx=0;exitDy=0;" parent="1" source="OoFEEfyxgxCQ3jexst7W-11" target="OoFEEfyxgxCQ3jexst7W-21" edge="1">
          <mxGeometry relative="1" as="geometry">
            <mxPoint x="780" y="576.5" as="sourcePoint" />
            <mxPoint x="917" y="1064.79" as="targetPoint" />
          </mxGeometry>
        </mxCell>
        <mxCell id="OoFEEfyxgxCQ3jexst7W-23" value="Z7/4" style="text;html=1;resizable=0;points=[];align=center;verticalAlign=middle;labelBackgroundColor=#ffffff;fontSize=20;" parent="OoFEEfyxgxCQ3jexst7W-22" vertex="1" connectable="0">
          <mxGeometry x="-0.3488" y="-1" relative="1" as="geometry">
            <mxPoint x="18" y="1" as="offset" />
          </mxGeometry>
        </mxCell>
        <mxCell id="OoFEEfyxgxCQ3jexst7W-24" value="14" style="ellipse;whiteSpace=wrap;html=1;rounded=0;shadow=1;strokeColor=#666666;strokeWidth=1;fontSize=30;align=center;fillColor=#f5f5f5;" parent="1" vertex="1">
          <mxGeometry x="1150" y="480" width="80" height="80" as="geometry" />
        </mxCell>
        <mxCell id="OoFEEfyxgxCQ3jexst7W-25" style="edgeStyle=none;curved=1;html=1;startSize=10;endFill=1;endSize=10;strokeWidth=2;fontSize=12;entryX=0;entryY=0.5;entryDx=0;entryDy=0;exitX=1;exitY=0;exitDx=0;exitDy=0;" parent="1" source="OoFEEfyxgxCQ3jexst7W-21" target="OoFEEfyxgxCQ3jexst7W-24" edge="1">
          <mxGeometry relative="1" as="geometry">
            <mxPoint x="1020" y="490" as="sourcePoint" />
            <mxPoint x="1127" y="934.79" as="targetPoint" />
          </mxGeometry>
        </mxCell>
        <mxCell id="OoFEEfyxgxCQ3jexst7W-26" value="Z8&lt;span style=&quot;background-color: light-dark(rgb(255, 255, 255), rgb(18, 18, 18)); color: light-dark(rgb(0, 0, 0), rgb(255, 255, 255));&quot;&gt;/4&lt;/span&gt;" style="text;html=1;resizable=0;points=[];align=center;verticalAlign=middle;labelBackgroundColor=#ffffff;fontSize=20;" parent="OoFEEfyxgxCQ3jexst7W-25" vertex="1" connectable="0">
          <mxGeometry x="-0.3488" y="-1" relative="1" as="geometry">
            <mxPoint x="18" y="1" as="offset" />
          </mxGeometry>
        </mxCell>
        <mxCell id="OoFEEfyxgxCQ3jexst7W-27" value="15" style="ellipse;whiteSpace=wrap;html=1;rounded=0;shadow=1;strokeColor=#666666;strokeWidth=1;fontSize=30;align=center;fillColor=#f5f5f5;" parent="1" vertex="1">
          <mxGeometry x="1150" y="580" width="80" height="80" as="geometry" />
        </mxCell>
        <mxCell id="OoFEEfyxgxCQ3jexst7W-28" style="edgeStyle=none;curved=1;html=1;startSize=10;endFill=1;endSize=10;strokeWidth=2;fontSize=12;entryX=0;entryY=0.5;entryDx=0;entryDy=0;exitX=1;exitY=0.5;exitDx=0;exitDy=0;" parent="1" source="OoFEEfyxgxCQ3jexst7W-21" target="OoFEEfyxgxCQ3jexst7W-27" edge="1">
          <mxGeometry relative="1" as="geometry">
            <mxPoint x="1030" y="590" as="sourcePoint" />
            <mxPoint x="1137" y="1034.79" as="targetPoint" />
          </mxGeometry>
        </mxCell>
        <mxCell id="OoFEEfyxgxCQ3jexst7W-29" value="Z9/3" style="text;html=1;resizable=0;points=[];align=center;verticalAlign=middle;labelBackgroundColor=#ffffff;fontSize=20;" parent="OoFEEfyxgxCQ3jexst7W-28" vertex="1" connectable="0">
          <mxGeometry x="-0.3488" y="-1" relative="1" as="geometry">
            <mxPoint x="18" y="1" as="offset" />
          </mxGeometry>
        </mxCell>
        <mxCell id="OoFEEfyxgxCQ3jexst7W-30" value="16" style="ellipse;whiteSpace=wrap;html=1;rounded=0;shadow=1;strokeColor=#666666;strokeWidth=1;fontSize=30;align=center;fillColor=#f5f5f5;" parent="1" vertex="1">
          <mxGeometry x="1150" y="680" width="80" height="80" as="geometry" />
        </mxCell>
        <mxCell id="OoFEEfyxgxCQ3jexst7W-31" style="edgeStyle=none;curved=1;html=1;startSize=10;endFill=1;endSize=10;strokeWidth=2;fontSize=12;entryX=0;entryY=0.5;entryDx=0;entryDy=0;exitX=0.962;exitY=0.753;exitDx=0;exitDy=0;exitPerimeter=0;" parent="1" source="OoFEEfyxgxCQ3jexst7W-21" target="OoFEEfyxgxCQ3jexst7W-30" edge="1">
          <mxGeometry relative="1" as="geometry">
            <mxPoint x="1020" y="690" as="sourcePoint" />
            <mxPoint x="1127" y="1134.79" as="targetPoint" />
          </mxGeometry>
        </mxCell>
        <mxCell id="OoFEEfyxgxCQ3jexst7W-32" value="Z10/5" style="text;html=1;resizable=0;points=[];align=center;verticalAlign=middle;labelBackgroundColor=#ffffff;fontSize=20;" parent="OoFEEfyxgxCQ3jexst7W-31" vertex="1" connectable="0">
          <mxGeometry x="-0.3488" y="-1" relative="1" as="geometry">
            <mxPoint x="18" y="3" as="offset" />
          </mxGeometry>
        </mxCell>
        <mxCell id="OoFEEfyxgxCQ3jexst7W-36" value="17" style="ellipse;whiteSpace=wrap;html=1;rounded=0;shadow=1;strokeColor=#666666;strokeWidth=1;fontSize=30;align=center;fillColor=#f5f5f5;" parent="1" vertex="1">
          <mxGeometry x="1420" y="580" width="80" height="80" as="geometry" />
        </mxCell>
        <mxCell id="OoFEEfyxgxCQ3jexst7W-39" value="" style="endArrow=none;dashed=1;html=1;rounded=0;exitX=1;exitY=0.5;exitDx=0;exitDy=0;entryX=0.087;entryY=0.805;entryDx=0;entryDy=0;entryPerimeter=0;" parent="1" source="OoFEEfyxgxCQ3jexst7W-30" target="OoFEEfyxgxCQ3jexst7W-36" edge="1">
          <mxGeometry width="50" height="50" relative="1" as="geometry">
            <mxPoint x="1297" y="672" as="sourcePoint" />
            <mxPoint x="1391" y="639" as="targetPoint" />
          </mxGeometry>
        </mxCell>
        <mxCell id="OoFEEfyxgxCQ3jexst7W-40" value="" style="endArrow=none;dashed=1;html=1;rounded=0;exitX=0.999;exitY=0.45;exitDx=0;exitDy=0;entryX=0;entryY=0.46;entryDx=0;entryDy=0;entryPerimeter=0;exitPerimeter=0;" parent="1" source="OoFEEfyxgxCQ3jexst7W-27" target="OoFEEfyxgxCQ3jexst7W-36" edge="1">
          <mxGeometry width="50" height="50" relative="1" as="geometry">
            <mxPoint x="1297" y="585" as="sourcePoint" />
            <mxPoint x="1396" y="605" as="targetPoint" />
          </mxGeometry>
        </mxCell>
        <mxCell id="OoFEEfyxgxCQ3jexst7W-41" value="" style="endArrow=none;dashed=1;html=1;rounded=0;exitX=1;exitY=0.5;exitDx=0;exitDy=0;entryX=0;entryY=0;entryDx=0;entryDy=0;" parent="1" source="OoFEEfyxgxCQ3jexst7W-24" target="OoFEEfyxgxCQ3jexst7W-36" edge="1">
          <mxGeometry width="50" height="50" relative="1" as="geometry">
            <mxPoint x="1280" y="454" as="sourcePoint" />
            <mxPoint x="1408" y="594" as="targetPoint" />
          </mxGeometry>
        </mxCell>
        <mxCell id="OoFEEfyxgxCQ3jexst7W-44" value="18" style="ellipse;whiteSpace=wrap;html=1;rounded=0;shadow=1;strokeColor=#666666;strokeWidth=1;fontSize=30;align=center;fillColor=#f5f5f5;" parent="1" vertex="1">
          <mxGeometry x="1620" y="580" width="80" height="80" as="geometry" />
        </mxCell>
        <mxCell id="OoFEEfyxgxCQ3jexst7W-45" style="edgeStyle=none;curved=1;html=1;startSize=10;endFill=1;endSize=10;strokeWidth=2;fontSize=12;entryX=0;entryY=0.5;entryDx=0;entryDy=0;exitX=1;exitY=0.5;exitDx=0;exitDy=0;" parent="1" source="OoFEEfyxgxCQ3jexst7W-36" target="OoFEEfyxgxCQ3jexst7W-44" edge="1">
          <mxGeometry relative="1" as="geometry">
            <mxPoint x="1500" y="620" as="sourcePoint" />
            <mxPoint x="1607" y="1064.79" as="targetPoint" />
          </mxGeometry>
        </mxCell>
        <mxCell id="OoFEEfyxgxCQ3jexst7W-46" value="Z11/4" style="text;html=1;resizable=0;points=[];align=center;verticalAlign=middle;labelBackgroundColor=#ffffff;fontSize=20;" parent="OoFEEfyxgxCQ3jexst7W-45" vertex="1" connectable="0">
          <mxGeometry x="-0.3488" y="-1" relative="1" as="geometry">
            <mxPoint x="18" y="1" as="offset" />
          </mxGeometry>
        </mxCell>
        <mxCell id="OoFEEfyxgxCQ3jexst7W-47" value="19" style="ellipse;whiteSpace=wrap;html=1;rounded=0;shadow=1;strokeColor=#666666;strokeWidth=1;fontSize=30;align=center;fillColor=#f5f5f5;" parent="1" vertex="1">
          <mxGeometry x="1810" y="580" width="80" height="80" as="geometry" />
        </mxCell>
        <mxCell id="OoFEEfyxgxCQ3jexst7W-48" value="" style="endArrow=none;dashed=1;html=1;rounded=0;exitX=1;exitY=0.5;exitDx=0;exitDy=0;entryX=0;entryY=0.5;entryDx=0;entryDy=0;" parent="1" source="OoFEEfyxgxCQ3jexst7W-44" target="OoFEEfyxgxCQ3jexst7W-47" edge="1">
          <mxGeometry width="50" height="50" relative="1" as="geometry">
            <mxPoint x="1710" y="616" as="sourcePoint" />
            <mxPoint x="1880" y="620" as="targetPoint" />
          </mxGeometry>
        </mxCell>
        <mxCell id="OoFEEfyxgxCQ3jexst7W-49" value="" style="endArrow=none;dashed=1;html=1;rounded=0;exitX=1;exitY=0.5;exitDx=0;exitDy=0;entryX=0;entryY=1;entryDx=0;entryDy=0;" parent="1" source="OoFEEfyxgxCQ3jexst7W-62" target="OoFEEfyxgxCQ3jexst7W-47" edge="1">
          <mxGeometry width="50" height="50" relative="1" as="geometry">
            <mxPoint x="710" y="990" as="sourcePoint" />
            <mxPoint x="1790" y="530" as="targetPoint" />
          </mxGeometry>
        </mxCell>
        <mxCell id="OoFEEfyxgxCQ3jexst7W-51" value="" style="endArrow=none;dashed=1;html=1;rounded=0;exitX=0;exitY=1;exitDx=0;exitDy=0;entryX=1;entryY=0;entryDx=0;entryDy=0;" parent="1" source="f0bcc99304e6f5a-4" target="f0bcc99304e6f5a-6" edge="1">
          <mxGeometry width="50" height="50" relative="1" as="geometry">
            <mxPoint x="310" y="370" as="sourcePoint" />
            <mxPoint x="438" y="510" as="targetPoint" />
          </mxGeometry>
        </mxCell>
        <mxCell id="OoFEEfyxgxCQ3jexst7W-52" value="6" style="ellipse;whiteSpace=wrap;html=1;rounded=0;shadow=1;strokeColor=#666666;strokeWidth=1;fontSize=30;align=center;fillColor=#f5f5f5;" parent="1" vertex="1">
          <mxGeometry x="625" y="360" width="80" height="80" as="geometry" />
        </mxCell>
        <mxCell id="OoFEEfyxgxCQ3jexst7W-53" style="edgeStyle=none;curved=1;html=1;startSize=10;endFill=1;endSize=10;strokeWidth=2;fontSize=12;entryX=0;entryY=0.5;entryDx=0;entryDy=0;exitX=1;exitY=0.5;exitDx=0;exitDy=0;" parent="1" source="f0bcc99304e6f5a-4" target="OoFEEfyxgxCQ3jexst7W-52" edge="1">
          <mxGeometry relative="1" as="geometry">
            <mxPoint x="595" y="492" as="sourcePoint" />
            <mxPoint x="757" y="519.29" as="targetPoint" />
          </mxGeometry>
        </mxCell>
        <mxCell id="OoFEEfyxgxCQ3jexst7W-54" value="Z3/4" style="text;html=1;resizable=0;points=[];align=center;verticalAlign=middle;labelBackgroundColor=#ffffff;fontSize=20;" parent="OoFEEfyxgxCQ3jexst7W-53" vertex="1" connectable="0">
          <mxGeometry x="-0.3488" y="-1" relative="1" as="geometry">
            <mxPoint x="7" y="-21" as="offset" />
          </mxGeometry>
        </mxCell>
        <mxCell id="OoFEEfyxgxCQ3jexst7W-56" style="edgeStyle=none;curved=1;html=1;startSize=10;endArrow=classic;endFill=1;endSize=10;strokeColor=#000000;strokeWidth=2;fontSize=12;exitX=1;exitY=1;exitDx=0;exitDy=0;" parent="1" source="f0bcc99304e6f5a-2" target="OoFEEfyxgxCQ3jexst7W-58" edge="1">
          <mxGeometry relative="1" as="geometry">
            <mxPoint x="40" y="460" as="sourcePoint" />
          </mxGeometry>
        </mxCell>
        <mxCell id="OoFEEfyxgxCQ3jexst7W-57" value="Z20/3" style="text;html=1;resizable=0;points=[];align=center;verticalAlign=middle;labelBackgroundColor=none;fontSize=20;" parent="OoFEEfyxgxCQ3jexst7W-56" vertex="1" connectable="0">
          <mxGeometry x="0.2545" y="-5" relative="1" as="geometry">
            <mxPoint x="-18" y="7" as="offset" />
          </mxGeometry>
        </mxCell>
        <mxCell id="OoFEEfyxgxCQ3jexst7W-58" value="10" style="ellipse;whiteSpace=wrap;html=1;rounded=0;shadow=1;strokeColor=#666666;strokeWidth=1;fontSize=30;align=center;fillColor=#f5f5f5;" parent="1" vertex="1">
          <mxGeometry x="560" y="850" width="80" height="80" as="geometry" />
        </mxCell>
        <mxCell id="OoFEEfyxgxCQ3jexst7W-59" value="" style="endArrow=none;dashed=1;html=1;rounded=0;exitX=1;exitY=0;exitDx=0;exitDy=0;entryX=0.5;entryY=1;entryDx=0;entryDy=0;" parent="1" source="OoFEEfyxgxCQ3jexst7W-58" target="OoFEEfyxgxCQ3jexst7W-11" edge="1">
          <mxGeometry width="50" height="50" relative="1" as="geometry">
            <mxPoint x="644" y="772" as="sourcePoint" />
            <mxPoint x="764" y="667" as="targetPoint" />
          </mxGeometry>
        </mxCell>
        <mxCell id="OoFEEfyxgxCQ3jexst7W-60" style="edgeStyle=none;curved=1;html=1;startSize=10;endArrow=classic;endFill=1;endSize=10;strokeColor=#000000;strokeWidth=2;fontSize=12;exitX=0.5;exitY=1;exitDx=0;exitDy=0;" parent="1" source="f0bcc99304e6f5a-2" target="OoFEEfyxgxCQ3jexst7W-62" edge="1">
          <mxGeometry relative="1" as="geometry">
            <mxPoint x="85" y="720" as="sourcePoint" />
          </mxGeometry>
        </mxCell>
        <mxCell id="OoFEEfyxgxCQ3jexst7W-61" value="Z21/4" style="text;html=1;resizable=0;points=[];align=center;verticalAlign=middle;labelBackgroundColor=none;fontSize=20;" parent="OoFEEfyxgxCQ3jexst7W-60" vertex="1" connectable="0">
          <mxGeometry x="0.2545" y="-5" relative="1" as="geometry">
            <mxPoint x="-18" y="7" as="offset" />
          </mxGeometry>
        </mxCell>
        <mxCell id="OoFEEfyxgxCQ3jexst7W-62" value="11" style="ellipse;whiteSpace=wrap;html=1;rounded=0;shadow=1;strokeColor=#666666;strokeWidth=1;fontSize=30;align=center;fillColor=#f5f5f5;" parent="1" vertex="1">
          <mxGeometry x="560" y="960" width="80" height="80" as="geometry" />
        </mxCell>
        <mxCell id="OoFEEfyxgxCQ3jexst7W-63" value="14" style="ellipse;whiteSpace=wrap;html=1;rounded=0;shadow=1;strokeColor=#666666;strokeWidth=1;fontSize=30;align=center;fillColor=#f5f5f5;" parent="1" vertex="1">
          <mxGeometry x="2010" y="580" width="80" height="80" as="geometry" />
        </mxCell>
        <mxCell id="OoFEEfyxgxCQ3jexst7W-64" style="edgeStyle=none;curved=1;html=1;startSize=10;endFill=1;endSize=10;strokeWidth=2;fontSize=12;entryX=0;entryY=0.5;entryDx=0;entryDy=0;exitX=1;exitY=0.5;exitDx=0;exitDy=0;" parent="1" source="OoFEEfyxgxCQ3jexst7W-47" target="OoFEEfyxgxCQ3jexst7W-63" edge="1">
          <mxGeometry relative="1" as="geometry">
            <mxPoint x="1890" y="620" as="sourcePoint" />
            <mxPoint x="1997" y="1064.79" as="targetPoint" />
          </mxGeometry>
        </mxCell>
        <mxCell id="OoFEEfyxgxCQ3jexst7W-65" value="Z12/3" style="text;html=1;resizable=0;points=[];align=center;verticalAlign=middle;labelBackgroundColor=#ffffff;fontSize=20;" parent="OoFEEfyxgxCQ3jexst7W-64" vertex="1" connectable="0">
          <mxGeometry x="-0.3488" y="-1" relative="1" as="geometry">
            <mxPoint x="18" y="1" as="offset" />
          </mxGeometry>
        </mxCell>
        <mxCell id="OoFEEfyxgxCQ3jexst7W-66" value="21" style="ellipse;whiteSpace=wrap;html=1;rounded=0;shadow=1;strokeColor=#666666;strokeWidth=1;fontSize=30;align=center;fillColor=#f5f5f5;" parent="1" vertex="1">
          <mxGeometry x="2200" y="580" width="80" height="80" as="geometry" />
        </mxCell>
        <mxCell id="OoFEEfyxgxCQ3jexst7W-67" value="" style="endArrow=none;dashed=1;html=1;rounded=0;exitX=1;exitY=0.5;exitDx=0;exitDy=0;entryX=0;entryY=0.5;entryDx=0;entryDy=0;" parent="1" source="OoFEEfyxgxCQ3jexst7W-63" target="OoFEEfyxgxCQ3jexst7W-66" edge="1">
          <mxGeometry width="50" height="50" relative="1" as="geometry">
            <mxPoint x="2090" y="620" as="sourcePoint" />
            <mxPoint x="2270" y="620" as="targetPoint" />
          </mxGeometry>
        </mxCell>
        <mxCell id="OoFEEfyxgxCQ3jexst7W-68" value="" style="endArrow=none;dashed=1;html=1;rounded=0;exitX=1;exitY=0.5;exitDx=0;exitDy=0;entryX=0;entryY=1;entryDx=0;entryDy=0;" parent="1" source="OoFEEfyxgxCQ3jexst7W-62" target="OoFEEfyxgxCQ3jexst7W-66" edge="1">
          <mxGeometry width="50" height="50" relative="1" as="geometry">
            <mxPoint x="650" y="1010" as="sourcePoint" />
            <mxPoint x="1822" y="642" as="targetPoint" />
          </mxGeometry>
        </mxCell>
        <mxCell id="OoFEEfyxgxCQ3jexst7W-70" style="edgeStyle=none;curved=1;html=1;startSize=10;endFill=1;endSize=10;strokeWidth=2;fontSize=12;entryX=0;entryY=0.5;entryDx=0;entryDy=0;exitX=1;exitY=0.5;exitDx=0;exitDy=0;" parent="1" source="OoFEEfyxgxCQ3jexst7W-47" target="OoFEEfyxgxCQ3jexst7W-72" edge="1">
          <mxGeometry relative="1" as="geometry">
            <mxPoint x="1890" y="620" as="sourcePoint" />
            <mxPoint x="1997" y="1064.79" as="targetPoint" />
          </mxGeometry>
        </mxCell>
        <mxCell id="OoFEEfyxgxCQ3jexst7W-71" value="Z12/3" style="text;html=1;resizable=0;points=[];align=center;verticalAlign=middle;labelBackgroundColor=#ffffff;fontSize=20;" parent="OoFEEfyxgxCQ3jexst7W-70" vertex="1" connectable="0">
          <mxGeometry x="-0.3488" y="-1" relative="1" as="geometry">
            <mxPoint x="18" y="1" as="offset" />
          </mxGeometry>
        </mxCell>
        <mxCell id="OoFEEfyxgxCQ3jexst7W-72" value="20" style="ellipse;whiteSpace=wrap;html=1;rounded=0;shadow=1;strokeColor=#666666;strokeWidth=1;fontSize=30;align=center;fillColor=#f5f5f5;" parent="1" vertex="1">
          <mxGeometry x="2010" y="580" width="80" height="80" as="geometry" />
        </mxCell>
        <mxCell id="OoFEEfyxgxCQ3jexst7W-73" style="edgeStyle=none;curved=1;html=1;startSize=10;endFill=1;endSize=10;strokeWidth=2;fontSize=12;entryX=0;entryY=0.5;entryDx=0;entryDy=0;exitX=1;exitY=0.5;exitDx=0;exitDy=0;" parent="1" source="OoFEEfyxgxCQ3jexst7W-66" target="OoFEEfyxgxCQ3jexst7W-75" edge="1">
          <mxGeometry relative="1" as="geometry">
            <mxPoint x="2280" y="620" as="sourcePoint" />
            <mxPoint x="2387" y="1064.79" as="targetPoint" />
          </mxGeometry>
        </mxCell>
        <mxCell id="OoFEEfyxgxCQ3jexst7W-74" value="Z13/3" style="text;html=1;resizable=0;points=[];align=center;verticalAlign=middle;labelBackgroundColor=#ffffff;fontSize=20;" parent="OoFEEfyxgxCQ3jexst7W-73" vertex="1" connectable="0">
          <mxGeometry x="-0.3488" y="-1" relative="1" as="geometry">
            <mxPoint x="18" y="1" as="offset" />
          </mxGeometry>
        </mxCell>
        <mxCell id="OoFEEfyxgxCQ3jexst7W-75" value="22" style="ellipse;whiteSpace=wrap;html=1;rounded=0;shadow=1;strokeColor=#666666;strokeWidth=1;fontSize=30;align=center;fillColor=#f5f5f5;" parent="1" vertex="1">
          <mxGeometry x="2400" y="580" width="80" height="80" as="geometry" />
        </mxCell>
        <mxCell id="OoFEEfyxgxCQ3jexst7W-77" style="edgeStyle=none;curved=1;html=1;startSize=10;endFill=1;endSize=10;strokeWidth=2;fontSize=12;entryX=0;entryY=0.5;entryDx=0;entryDy=0;exitX=1;exitY=0.5;exitDx=0;exitDy=0;" parent="1" source="OoFEEfyxgxCQ3jexst7W-75" target="OoFEEfyxgxCQ3jexst7W-79" edge="1">
          <mxGeometry relative="1" as="geometry">
            <mxPoint x="2480" y="620" as="sourcePoint" />
            <mxPoint x="2587" y="1064.79" as="targetPoint" />
          </mxGeometry>
        </mxCell>
        <mxCell id="OoFEEfyxgxCQ3jexst7W-78" value="Z14/2" style="text;html=1;resizable=0;points=[];align=center;verticalAlign=middle;labelBackgroundColor=#ffffff;fontSize=20;" parent="OoFEEfyxgxCQ3jexst7W-77" vertex="1" connectable="0">
          <mxGeometry x="-0.3488" y="-1" relative="1" as="geometry">
            <mxPoint x="18" y="1" as="offset" />
          </mxGeometry>
        </mxCell>
        <mxCell id="OoFEEfyxgxCQ3jexst7W-79" value="23" style="ellipse;whiteSpace=wrap;html=1;rounded=0;shadow=1;strokeColor=#666666;strokeWidth=1;fontSize=30;align=center;fillColor=#f5f5f5;" parent="1" vertex="1">
          <mxGeometry x="2600" y="580" width="80" height="80" as="geometry" />
        </mxCell>
        <mxCell id="OoFEEfyxgxCQ3jexst7W-81" value="" style="endArrow=none;dashed=1;html=1;rounded=0;exitX=1;exitY=0;exitDx=0;exitDy=0;entryX=0;entryY=0.5;entryDx=0;entryDy=0;" parent="1" source="OoFEEfyxgxCQ3jexst7W-72" target="OoFEEfyxgxCQ3jexst7W-82" edge="1">
          <mxGeometry width="50" height="50" relative="1" as="geometry">
            <mxPoint x="2130" y="530" as="sourcePoint" />
            <mxPoint x="2240" y="530" as="targetPoint" />
          </mxGeometry>
        </mxCell>
        <mxCell id="OoFEEfyxgxCQ3jexst7W-82" value="24" style="ellipse;whiteSpace=wrap;html=1;rounded=0;shadow=1;strokeColor=#666666;strokeWidth=1;fontSize=30;align=center;fillColor=#f5f5f5;" parent="1" vertex="1">
          <mxGeometry x="2600" y="440" width="80" height="80" as="geometry" />
        </mxCell>
        <mxCell id="OoFEEfyxgxCQ3jexst7W-84" value="" style="endArrow=none;dashed=1;html=1;rounded=0;exitX=0.5;exitY=0;exitDx=0;exitDy=0;entryX=0.5;entryY=1;entryDx=0;entryDy=0;" parent="1" source="OoFEEfyxgxCQ3jexst7W-79" target="OoFEEfyxgxCQ3jexst7W-82" edge="1">
          <mxGeometry width="50" height="50" relative="1" as="geometry">
            <mxPoint x="2620" y="540" as="sourcePoint" />
            <mxPoint x="2730" y="540" as="targetPoint" />
          </mxGeometry>
        </mxCell>
        <mxCell id="OoFEEfyxgxCQ3jexst7W-85" style="edgeStyle=none;curved=1;html=1;startSize=10;endFill=1;endSize=10;strokeWidth=2;fontSize=12;entryX=0;entryY=0;entryDx=0;entryDy=0;exitX=1;exitY=0.5;exitDx=0;exitDy=0;" parent="1" source="OoFEEfyxgxCQ3jexst7W-82" target="OoFEEfyxgxCQ3jexst7W-87" edge="1">
          <mxGeometry relative="1" as="geometry">
            <mxPoint x="2680" y="480" as="sourcePoint" />
            <mxPoint x="2787" y="924.79" as="targetPoint" />
          </mxGeometry>
        </mxCell>
        <mxCell id="OoFEEfyxgxCQ3jexst7W-86" value="Z15/2" style="text;html=1;resizable=0;points=[];align=center;verticalAlign=middle;labelBackgroundColor=#ffffff;fontSize=20;" parent="OoFEEfyxgxCQ3jexst7W-85" vertex="1" connectable="0">
          <mxGeometry x="-0.3488" y="-1" relative="1" as="geometry">
            <mxPoint x="18" y="1" as="offset" />
          </mxGeometry>
        </mxCell>
        <mxCell id="OoFEEfyxgxCQ3jexst7W-87" value="25" style="ellipse;whiteSpace=wrap;html=1;rounded=0;shadow=1;strokeColor=#666666;strokeWidth=1;fontSize=30;align=center;fillColor=#f5f5f5;" parent="1" vertex="1">
          <mxGeometry x="2750" y="580" width="80" height="80" as="geometry" />
        </mxCell>
        <mxCell id="OoFEEfyxgxCQ3jexst7W-92" value="26" style="ellipse;whiteSpace=wrap;html=1;rounded=0;shadow=1;strokeColor=#666666;strokeWidth=1;fontSize=30;align=center;fillColor=#f5f5f5;" parent="1" vertex="1">
          <mxGeometry x="2750" y="770" width="80" height="80" as="geometry" />
        </mxCell>
        <mxCell id="OoFEEfyxgxCQ3jexst7W-93" value="" style="endArrow=none;dashed=1;html=1;rounded=0;exitX=1;exitY=1;exitDx=0;exitDy=0;entryX=0;entryY=0.5;entryDx=0;entryDy=0;" parent="1" source="OoFEEfyxgxCQ3jexst7W-27" target="OoFEEfyxgxCQ3jexst7W-92" edge="1">
          <mxGeometry width="50" height="50" relative="1" as="geometry">
            <mxPoint x="1240" y="730" as="sourcePoint" />
            <mxPoint x="1437" y="654" as="targetPoint" />
          </mxGeometry>
        </mxCell>
        <mxCell id="OoFEEfyxgxCQ3jexst7W-94" value="" style="endArrow=none;dashed=1;html=1;rounded=0;exitX=0.5;exitY=0;exitDx=0;exitDy=0;entryX=0.5;entryY=1;entryDx=0;entryDy=0;" parent="1" source="OoFEEfyxgxCQ3jexst7W-92" target="OoFEEfyxgxCQ3jexst7W-87" edge="1">
          <mxGeometry width="50" height="50" relative="1" as="geometry">
            <mxPoint x="2740" y="720" as="sourcePoint" />
            <mxPoint x="2740" y="660" as="targetPoint" />
          </mxGeometry>
        </mxCell>
        <mxCell id="OoFEEfyxgxCQ3jexst7W-95" style="edgeStyle=none;curved=1;html=1;startSize=10;endFill=1;endSize=10;strokeWidth=2;fontSize=12;entryX=0;entryY=1;entryDx=0;entryDy=0;exitX=1;exitY=0;exitDx=0;exitDy=0;" parent="1" source="OoFEEfyxgxCQ3jexst7W-92" target="OoFEEfyxgxCQ3jexst7W-97" edge="1">
          <mxGeometry relative="1" as="geometry">
            <mxPoint x="2850" y="480" as="sourcePoint" />
            <mxPoint x="2957" y="924.79" as="targetPoint" />
          </mxGeometry>
        </mxCell>
        <mxCell id="OoFEEfyxgxCQ3jexst7W-96" value="Z16/1" style="text;html=1;resizable=0;points=[];align=center;verticalAlign=middle;labelBackgroundColor=#ffffff;fontSize=20;" parent="OoFEEfyxgxCQ3jexst7W-95" vertex="1" connectable="0">
          <mxGeometry x="-0.3488" y="-1" relative="1" as="geometry">
            <mxPoint x="18" y="1" as="offset" />
          </mxGeometry>
        </mxCell>
        <mxCell id="OoFEEfyxgxCQ3jexst7W-97" value="27" style="ellipse;whiteSpace=wrap;html=1;rounded=0;shadow=1;strokeColor=#666666;strokeWidth=1;fontSize=30;align=center;fillColor=#f5f5f5;" parent="1" vertex="1">
          <mxGeometry x="2920" y="580" width="80" height="80" as="geometry" />
        </mxCell>
        <mxCell id="OoFEEfyxgxCQ3jexst7W-98" style="edgeStyle=none;curved=1;html=1;startSize=10;endFill=1;endSize=10;strokeWidth=2;fontSize=12;entryX=0;entryY=0.5;entryDx=0;entryDy=0;exitX=1;exitY=0.5;exitDx=0;exitDy=0;" parent="1" source="OoFEEfyxgxCQ3jexst7W-97" target="OoFEEfyxgxCQ3jexst7W-100" edge="1">
          <mxGeometry relative="1" as="geometry">
            <mxPoint x="3000" y="620" as="sourcePoint" />
            <mxPoint x="3147" y="924.79" as="targetPoint" />
          </mxGeometry>
        </mxCell>
        <mxCell id="OoFEEfyxgxCQ3jexst7W-99" value="Z17/1" style="text;html=1;resizable=0;points=[];align=center;verticalAlign=middle;labelBackgroundColor=#ffffff;fontSize=20;" parent="OoFEEfyxgxCQ3jexst7W-98" vertex="1" connectable="0">
          <mxGeometry x="-0.3488" y="-1" relative="1" as="geometry">
            <mxPoint x="7" y="-1" as="offset" />
          </mxGeometry>
        </mxCell>
        <mxCell id="OoFEEfyxgxCQ3jexst7W-100" value="28" style="ellipse;whiteSpace=wrap;html=1;rounded=0;shadow=1;strokeColor=#666666;strokeWidth=1;fontSize=30;align=center;fillColor=#f5f5f5;" parent="1" vertex="1">
          <mxGeometry x="3100" y="580" width="80" height="80" as="geometry" />
        </mxCell>
        <mxCell id="OoFEEfyxgxCQ3jexst7W-101" style="edgeStyle=none;curved=1;html=1;startSize=10;endFill=1;endSize=10;strokeWidth=2;fontSize=12;entryX=0;entryY=0.5;entryDx=0;entryDy=0;exitX=1;exitY=0.5;exitDx=0;exitDy=0;" parent="1" source="OoFEEfyxgxCQ3jexst7W-100" target="OoFEEfyxgxCQ3jexst7W-103" edge="1">
          <mxGeometry relative="1" as="geometry">
            <mxPoint x="3180" y="620" as="sourcePoint" />
            <mxPoint x="3327" y="924.79" as="targetPoint" />
          </mxGeometry>
        </mxCell>
        <mxCell id="OoFEEfyxgxCQ3jexst7W-102" value="Z18/1" style="text;html=1;resizable=0;points=[];align=center;verticalAlign=middle;labelBackgroundColor=#ffffff;fontSize=20;" parent="OoFEEfyxgxCQ3jexst7W-101" vertex="1" connectable="0">
          <mxGeometry x="-0.3488" y="-1" relative="1" as="geometry">
            <mxPoint x="7" y="-1" as="offset" />
          </mxGeometry>
        </mxCell>
        <mxCell id="OoFEEfyxgxCQ3jexst7W-103" value="29" style="ellipse;whiteSpace=wrap;html=1;rounded=0;shadow=1;strokeColor=#666666;strokeWidth=1;fontSize=30;align=center;fillColor=#f5f5f5;" parent="1" vertex="1">
          <mxGeometry x="3280" y="580" width="80" height="80" as="geometry" />
        </mxCell>
        <mxCell id="OoFEEfyxgxCQ3jexst7W-104" style="edgeStyle=none;curved=1;html=1;startSize=10;endArrow=classic;endFill=1;endSize=10;strokeColor=#000000;strokeWidth=2;fontSize=12;exitX=0.5;exitY=0;exitDx=0;exitDy=0;" parent="1" source="f0bcc99304e6f5a-2" target="OoFEEfyxgxCQ3jexst7W-106" edge="1">
          <mxGeometry relative="1" as="geometry">
            <mxPoint x="-210" y="130" as="sourcePoint" />
          </mxGeometry>
        </mxCell>
        <mxCell id="OoFEEfyxgxCQ3jexst7W-105" value="Z19/3" style="text;html=1;resizable=0;points=[];align=center;verticalAlign=middle;labelBackgroundColor=none;fontSize=20;" parent="OoFEEfyxgxCQ3jexst7W-104" vertex="1" connectable="0">
          <mxGeometry x="0.2545" y="-5" relative="1" as="geometry">
            <mxPoint x="-48" y="-8" as="offset" />
          </mxGeometry>
        </mxCell>
        <mxCell id="OoFEEfyxgxCQ3jexst7W-106" value="4" style="ellipse;whiteSpace=wrap;html=1;rounded=0;shadow=1;strokeColor=#666666;strokeWidth=1;fontSize=30;align=center;fillColor=#f5f5f5;" parent="1" vertex="1">
          <mxGeometry x="220" y="360" width="80" height="80" as="geometry" />
        </mxCell>
        <mxCell id="OoFEEfyxgxCQ3jexst7W-107" value="" style="endArrow=none;dashed=1;html=1;rounded=0;exitX=0;exitY=0.5;exitDx=0;exitDy=0;entryX=1;entryY=0.5;entryDx=0;entryDy=0;" parent="1" source="f0bcc99304e6f5a-4" target="OoFEEfyxgxCQ3jexst7W-106" edge="1">
          <mxGeometry width="50" height="50" relative="1" as="geometry">
            <mxPoint x="517" y="438" as="sourcePoint" />
            <mxPoint x="448" y="582" as="targetPoint" />
          </mxGeometry>
        </mxCell>
      </root>
    </mxGraphModel>
  </diagram>
</mxfile>
